<svg id="Layer_1" data-name="Layer 1" xmlns="http://www.w3.org/2000/svg" xmlns:xlink="http://www.w3.org/1999/xlink" viewBox="0 0 927.2 633.6"><defs><style>.cls-1,.cls-6{fill:#00a651;}.cls-1,.cls-17,.cls-2,.cls-3,.cls-5{stroke:#231f20;}.cls-1,.cls-2,.cls-5{stroke-miterlimit:10;}.cls-1,.cls-17,.cls-19,.cls-2,.cls-3,.cls-5{stroke-width:16px;}.cls-13,.cls-2,.cls-3{fill:#6d6e71;}.cls-17,.cls-19,.cls-21,.cls-3{stroke-linejoin:round;}.cls-4{fill:#036936;}.cls-17,.cls-19,.cls-21,.cls-5{fill:none;}.cls-7{clip-path:url(#clip-path);}.cls-8{opacity:0.4;}.cls-9{fill:#020202;}.cls-10{clip-path:url(#clip-path-2);}.cls-11{clip-path:url(#clip-path-3);}.cls-12{clip-path:url(#clip-path-4);}.cls-14{clip-path:url(#clip-path-5);}.cls-15{clip-path:url(#clip-path-6);}.cls-16{clip-path:url(#clip-path-7);}.cls-18{fill:#cb6828;}.cls-19,.cls-21{stroke:#fbaa1e;}.cls-20{fill:#e27b41;}.cls-21{stroke-width:12px;}</style><clipPath id="clip-path"><path class="cls-1" d="M208.92,373.62c1.88-.13,3.76-1.42,5.71-1.48s3.86.63,5.78.69,3.94-.46,5.83-.24,3.6,1.91,5.43,2.36a32.09,32.09,0,0,1,5.46,1.54c1.77.79,3,2.14,4.54,3.31a19.67,19.67,0,0,1,4,3.82c1.26,1.65,3.52,2.69,4.29,4.59s.58,4.14,1,6.18a58.05,58.05,0,0,1,.68,6.1c.18,2.05,1.1,4.07,1.19,6.1.09,2.28.66,4.55.74,6.83s-1.4,4.62-1.33,6.9.2,4.56.25,6.85c0,1.78-.06,3.55-.12,5.34a34.91,34.91,0,0,1-.71,5.21,19.53,19.53,0,0,1-1.48,4.94c-.92,2-1.6,3.94-3.07,5.52a32.91,32.91,0,0,1-4.62,4.52c-1.75,1.27-4.13,1.55-6,2.62s-3.15,3-5.06,3.92-3.71,2.14-5.67,2.92-4.38.26-6.39.83a50.42,50.42,0,0,1-6.14,1.11c-2.1.33-4.08,1.51-6.17,1.51a35,35,0,0,1-6.3-.69,30.76,30.76,0,0,1-6.25-1.37c-2-.85-3.69-2.47-5.47-3.73a32.9,32.9,0,0,1-5-4.21c-1.5-1.57-3.62-2.78-4.85-4.6s-.69-4.63-1.63-6.61a45.58,45.58,0,0,1-2.69-5.87c-.66-2.09-2.24-3.94-2.66-6.09s.44-4.47.23-6.65-1.59-4.28-1.65-6.47.05-4.4.11-6.59.73-4.35.86-6.53.85-4,1-5.78c.22-2.11.75-3.94,1.06-5.71.37-2.12-.49-4.3.05-6a25.85,25.85,0,0,1,2.17-5.6,16.91,16.91,0,0,1,4.26-4.3c1.48-1.13,3.67-1.11,5.63-1.83,1.69-.61,3.31-2,5.4-2.38,1.77-.34,3.75-.4,5.84-.63,1.82-.21,3.71-1.05,5.78-1.21C204.82,372.62,206.86,373.75,208.92,373.62Z"/></clipPath><clipPath id="clip-path-2"><path class="cls-1" d="M132.93,419c-1.31,1.35-3,2.43-4.26,3.88s-2,3.27-3.24,4.77-3.19,2.43-4.24,4-1.43,3.63-2.27,5.33-2.52,3.18-3,5a25.8,25.8,0,0,0-.79,5.8,22.37,22.37,0,0,0,.18,5.88,24.13,24.13,0,0,0,2.49,5.76,34.14,34.14,0,0,0,3.4,5.2,59.87,59.87,0,0,0,4.21,4.54c1.45,1.46,3.49,2.31,5,3.69,1.68,1.54,3,3.47,4.7,5s3.28,3.19,5,4.71,3.07,3.43,4.78,4.95c1.33,1.17,2.86,2.2,4.26,3.32a37.61,37.61,0,0,0,4.74,2.6c1.56.89,3.4.77,5.14,1.24,2.1.58,4,2.18,6.17,2.08s4.14-1.37,6.25-1.9,4.43-.34,6.44-1.06,3.51-2.52,5.46-3.37,4-1.35,5.85-2.35,4-1.54,5.77-2.71,2.67-3.44,4.25-4.81a39.81,39.81,0,0,0,4.53-4.26,33.59,33.59,0,0,0,3.91-4.88,30.38,30.38,0,0,0,2.7-5.7,29.54,29.54,0,0,0,1.26-6.42,33.44,33.44,0,0,0,.07-6.56c-.23-2.16-1.2-4.2-1.8-6.31s-.17-4.62-1.07-6.62a49.37,49.37,0,0,0-3.59-5.61c-1.17-1.85-3.15-3.12-4.52-4.82s-3.06-3-4.59-4.61-3.06-3-4.7-4.5-3-3.19-4.69-4.56-3.68-2.37-5.42-3.68-2.66-3.2-4.17-4.23c-1.74-1.2-3.32-2.39-4.88-3.3a50.52,50.52,0,0,0-5.1-3.08c-2-.82-4.23-.24-6-.5-2-.29-4.05-1.16-5.92-.75a20.88,20.88,0,0,0-5.46,2.49,39.64,39.64,0,0,0-4.65,3.62c-1.4,1.14-2.57,2.75-4.1,4.19-1.33,1.26-3.57,1.77-5,3.25C134.62,415,134.36,417.49,132.93,419Z"/></clipPath><clipPath id="clip-path-3"><path class="cls-1" d="M96.46,347.51c-1.65.93-3.35,1.84-5,2.85s-3.15,2.22-4.73,3.31-3.59,1.72-5.06,2.93-2.17,3.37-3.46,4.76-3.26,2.39-4.29,4-.57,3.94-1.21,5.75-2.13,3.32-2.28,5.29-.7,4.3-.31,6.31a34,34,0,0,0,1.76,6.08c.75,1.89,3,3.17,3.94,5s1,4.21,2,5.95c1.17,2,2.52,3.83,3.7,5.78s3.26,3.37,4.45,5.32,2.65,3.73,3.85,5.67c.94,1.51,1.74,3.09,2.76,4.56s.88,3.95,2.1,5.24,3.46,1.52,5,2.48a20.83,20.83,0,0,0,5.74,2.86c2.07.52,4.21,1.61,6.38,1.72s4.33-1.73,6.46-1.84,4.36,1.51,6.47,1.25,3.91-2.26,6-2.68,4.16-.57,6.17-1.19,4.38-.44,6.28-1.3,3.34-2.76,5.09-3.9,3-2.84,4.5-4.3,3.68-2.26,4.88-4a29.67,29.67,0,0,0,2.8-5.92,32.84,32.84,0,0,0,1.83-6.26c.4-2.13-.14-4.31-.11-6.51s1.43-4.45,1.14-6.61A47.76,47.76,0,0,0,162,383.5a59.76,59.76,0,0,0-2.09-6.31c-.82-2-2.49-3.71-3.51-5.65s-2.21-3.77-3.36-5.63-2.48-3.59-3.72-5.39-2.13-3.86-3.43-5.62-2-3.6-3.13-5c-1.32-1.64-3.82-2.05-5.05-3.36a40.89,40.89,0,0,0-4.29-3.82c-1.67-1.36-2.34-3.87-4-4.62-1.86-.87-4-.64-6-.79s-4-.71-6-.24c-1.75.41-3.09,2.57-5.06,3.38-1.67.68-4,.3-5.85,1.25-1.63.82-3.27,1.9-5.1,2.89C99.91,345.46,98.26,346.5,96.46,347.51Z"/></clipPath><clipPath id="clip-path-4"><path class="cls-1" d="M171.48,306.53c-1.74.9-3,2.74-4.8,3.73s-4.18.82-5.87,1.89-2.54,3.42-4.11,4.61-4.11,1.45-5.52,2.81-1.92,3.74-3.06,5.33-3.34,2.84-4.07,4.68a27.86,27.86,0,0,0-.59,12.48c.42,2,2.17,3.63,3,5.57a51.49,51.49,0,0,0,2.64,5.58c1,1.81,2.65,3.24,3.76,5,.95,1.47.54,3.83,1.5,5.3s2.58,2.5,3.54,4,1.05,3.51,2,5,2.08,2.84,3,4.3,2,3.22,3.07,4.71,3.75,1.65,5.08,2.93,2.22,3,3.85,3.9c2,1.16,4.32,1.33,6.61,1.86s4.36,2.15,6.71,2.25,4.66-1.52,7-1.63c1.95-.1,3.88-.14,5.86-.34s4.09,1,6,.63,3.84-1.09,5.74-1.55,4-.54,5.86-1.17,3.49-2.07,5.25-2.89,3.07-2.51,4.7-3.57,4.25-1,5.7-2.29a32.8,32.8,0,0,0,4.15-4.42A31.32,31.32,0,0,0,242,369.3c.88-2,.29-4.59.73-6.75a35.56,35.56,0,0,0,1.09-6.47,40.29,40.29,0,0,0-.66-6.55,42.29,42.29,0,0,0-1.27-6.45c-.54-1.78-1.82-3.26-2.54-5s-.51-3.85-1.38-5.5-2.38-2.92-3.37-4.5-1.81-3.24-2.88-4.77-1.42-3.58-2.55-5.07-3.3-2.14-4.46-3.59c-1.39-1.73-2.17-3.77-3.45-5.23-1.48-1.68-3-3.12-4.36-4.45-1.63-1.59-2.78-3.54-4.3-4.66a27.46,27.46,0,0,0-5.58-3.17c-2-.81-4.36.44-6.41.34s-4.05-1.16-6.21-.68a46.25,46.25,0,0,0-5.84,2.24c-1.8.68-3.33,2.28-5.35,3.22-1.77.81-4.32.28-6.28,1.27C175.21,304.44,173.43,305.52,171.48,306.53Z"/></clipPath><clipPath id="clip-path-5"><path class="cls-2" d="M62.2,332.46a49.32,49.32,0,0,1-.12-5.57,32,32,0,0,1,.88-5.46,20.68,20.68,0,0,1,1.47-5.27,16.58,16.58,0,0,1,2.83-4.76,17.85,17.85,0,0,1,4.55-3.2c1.7-.89,3.78-.62,5.62-1.16s3.33-2.49,5.24-2.76,3.86.12,5.78,0,3.82-.05,5.73-.09,3.84.61,5.73.57,3.81-.82,5.69-.95,4,.73,5.85.4a34.38,34.38,0,0,0,6.21-2.18,38.15,38.15,0,0,0,6-2.63c1.82-1.1,2.62-3.69,4.28-5.07a48.46,48.46,0,0,0,4.79-4.15c1.46-1.57,3.37-2.76,4.64-4.48a62,62,0,0,0,3.13-5.63c1.2-2.05,2.13-4.25,3.29-6.34s3.26-3.55,4.67-5.47a24.26,24.26,0,0,1,5-4.73c1.91-1.46,3.46-3.24,5.8-3.76s4.68-1.07,6.91-.54,4,2.29,6,3.48a30.89,30.89,0,0,1,5.27,4.24,43,43,0,0,1,4.33,4.81c1.35,1.72,3.76,2.77,4.84,4.67s.66,4.56,1.46,6.59c.69,1.76,2.52,3.39,3.27,5.48s.32,4.28.69,6.3c.41,2.17,1.45,4.24,1,6.18a14.69,14.69,0,0,1-2.55,4.9,13.91,13.91,0,0,1-3.84,3.77,22.07,22.07,0,0,1-4.77,2.58,50.21,50.21,0,0,1-5.19,1.76c-1.78.51-3.63.81-5.37,1.32a45.49,45.49,0,0,0-5.19,2c-1.8.78-3.48,1.86-5.27,2.68s-3.59,1.61-5.36,2.48-3.07,2.65-4.83,3.54-3.56,1.66-5.31,2.56-3.77,1.27-5.53,2.16-3.48,1.85-5.24,2.73-3.85,1.08-5.62,1.93-3.61,1.56-5.4,2.37a46.28,46.28,0,0,0-5.59,3c-1.73,1.1-2.63,3.48-4.33,4.72s-3.77,1.91-5.44,3.15-3.64,2.08-5.35,3.21-3,3.18-4.86,4.09-4.28.4-6.28.92-3.9,2.32-5.9,2.15-3.67-2.17-5.58-2.9-3.85-1.14-5.52-2.31a26.22,26.22,0,0,1-4.25-4.24c-1.36-1.51-3.73-2.4-4.69-4.17-1.06-1.94-1.31-4.36-1.95-6.46A38.62,38.62,0,0,1,62.2,332.46Z"/></clipPath><clipPath id="clip-path-6"><path class="cls-2" d="M109.41,246c-2-.37-4.15-1.11-6.22-1s-4,1.51-6,2a29.84,29.84,0,0,0-5.61,2.34A27.87,27.87,0,0,0,86.16,252c-1.7,1.28-4.27,1.81-5.61,3.48s-1.12,4.39-2,6.31a25.49,25.49,0,0,0-2.45,5.8c-.43,2.11-1.6,4.28-1.43,6.4s1.51,4.12,2.35,6.12a25,25,0,0,0,2.65,5.54,40.46,40.46,0,0,0,4.19,4.5,53.75,53.75,0,0,0,4.37,3.19c1.42,1.09,2.43,2.91,4,3.81s3.58,1,5.24,1.69a31.39,31.39,0,0,0,5.25,1.12c1.74.35,3.48,1.55,5.28,1.53s3.61-.8,5.35-1.2a22.16,22.16,0,0,0,5-2c1.59-.8,3.55-1.28,4.87-2.51a21.88,21.88,0,0,0,3.87-5.19c1-1.82,1.32-4.05,1.89-6.09a32.13,32.13,0,0,0,1.15-6.19c.13-1.67-.75-3.61-.73-5.66,0-1.83.22-3.67.06-5.57a34.63,34.63,0,0,0-.9-5.45c-.49-2-.66-3.79-1.62-5.23-1.25-1.86-3.13-3.09-5.09-4.5s-3.44-3.33-5.58-4.22A32,32,0,0,0,109.41,246Z"/></clipPath><clipPath id="clip-path-7"><path class="cls-3" d="M153.19,241a58.85,58.85,0,0,0,5.92-4.51,20.59,20.59,0,0,0,3.82-6.33c.9-2,2.45-3.89,2.74-6.07s-.35-4.42-.19-6.6a40.59,40.59,0,0,1,.79-6.46,22.68,22.68,0,0,1,2.67-5.6,21.56,21.56,0,0,1,4-4.6,18.83,18.83,0,0,1,4.93-3.39c1.91-1,3.31-3.31,5.32-3.66a26,26,0,0,1,6.42,0,34.31,34.31,0,0,1,6.17,1.41,47.72,47.72,0,0,1,5.72,2.59c1.88.85,3.8,1.69,5.6,2.73s3.5,2.31,5.18,3.47,3.58,1.71,5.15,2.88,3.25,2.2,4.78,3.42,1.88,3.83,3.37,5.1,3.07,2.38,4.51,3.69,2.69,2.79,4.1,4.14,4,1.5,5.37,2.88,2.82,2.73,4.16,4.14,2.56,3,3.88,4.41,2.47,3,3.76,4.5,2.29,3.17,3.56,4.66,2.26,3.19,3.51,4.69,3.39,2.36,4.65,3.91,1.59,3.81,2.82,5.38,2.5,3.09,3.7,4.67,3.31,2.49,4.49,4.1,1.13,4.09,2.28,5.71,2.12,3.35,3.23,5,3.52,2.44,4.6,4.11,1.46,3.79,2.5,5.49,1.45,3.75,2.44,5.47,2.27,3.27,3.22,5,1.32,3.78,2.22,5.55,3.39,2.77,4.24,4.57,1,3.94,1.76,5.76.95,3.9,1.68,5.75,1.63,3.62,2.3,5.49,1.5,3.68,2.09,5.58,1,3.85,1.51,5.77.75,3.89,1.2,5.83,1.67,3.92,2.07,6,.26,4.2.58,6.27.7,4.11,1,6.19,1.6,4,1.81,6.12-1.17,4.31-1,6.39,1.66,4.08,1.79,6.17-.25,4.21-.14,6.3.49,4.16.58,6.25-.79,4.22-.7,6.31c.08,1.91,1.22,3.83,1.2,5.75s-1.31,3.78-1.6,5.66.31,4.1-.46,5.87-3.2,2.74-4.59,4.2a16.83,16.83,0,0,1-4.46,3.81,16.17,16.17,0,0,1-5.7,1.3c-2,.24-4.78,1.5-6.75.92.29-2,1.5-4.56,1.71-6.59s.32-4.09.45-6.13-.78-4.11-.74-6.15,1.05-4.08,1-6.12-.09-4.1-.21-6.14.31-4.15.1-6.19-1.63-3.93-1.93-5.95-1.12-3.93-1.51-5.94.69-4.32.22-6.31-2.32-3.63-2.88-5.59-.25-4.19-.9-6.13-2.24-3.53-3-5.44-.2-4.34-1-6.21-2.09-3.56-3-5.39-2-3.59-3-5.37-1.48-3.91-2.57-5.64-3.47-2.41-4.6-4-1.26-4-2.47-5.51-2.87-2.75-4.16-4.23-2.88-2.68-4.25-4.09-2.82-2.72-4.25-4.06-2.15-3.53-3.65-4.79-3.27-2.26-4.85-3.43-3.25-2.25-4.88-3.34-3.87-1.22-5.56-2.22-2.85-3-4.59-3.86-3.89-1-5.69-1.78-3.1-2.85-4.94-3.54-4.05-.38-5.93-1-3.51-2.17-5.43-2.63-4-.42-5.92-.75-3.92-.58-5.88-.78c-2.13-.22-4.44.78-6.57.48a26.62,26.62,0,0,1-6.18-2.18,27.69,27.69,0,0,1-5.43-3.38c-1.71-1.26-3.12-3-4.8-4.27a37.68,37.68,0,0,0-5.62-3.15c-1.9-1-3.81-2.66-6-2.8-2-.14-3.72,1.77-5.56,2.44a25,25,0,0,0-5.35,2.16c-1.62,1-2.75,2.82-4.33,4s-3.69,1.67-5.3,2.69-3.41,2.37-5.18,2.09c-1.56-.24-2.16-2.18-3.1-3.54s-2.83-2.11-3.35-3.54c-.66-1.84-1.11-3.87-1.79-5.84s-1-4-1.54-6a45.45,45.45,0,0,1-1.54-6.54c1.87-.59,4.14-1.38,5.87-2s3.79-.66,5.51-1.34,3.82-.7,5.53-1.55,2.48-3.12,4.14-4.16S151.61,242.21,153.19,241Z"/></clipPath></defs><path class="cls-4" d="M212.76,498.87a34.75,34.75,0,0,0,7.27-.44c2.47-.38,5.26.23,7.43-1a21.16,21.16,0,0,0,4-3.05,36.4,36.4,0,0,0,3.3-3.72c1.15-1.42,1.51-3.42,2.52-4.94s1.45-3.3,2.33-4.9,2.49-2.79,3.21-4.47,2.07-3.14,2.65-4.87,1.39-3.47,1.8-5.25a30.7,30.7,0,0,0,.67-6.61c0-2.23-1.25-4.36-2-6.3s-1.71-4.06-3.58-5.31c-2.44-1.61-5.63-1.7-8.54-2-1.88-.18-3.71-1.09-5.59-1.21s-3.83,1.42-5.72,1.38-3.72,0-5.6,0-3.82-1-5.7-.81-3.76.41-5.62.72-3.78.46-5.61.93-3.48,1.56-5.25,2.22-3.13,2.12-4.82,3a48.61,48.61,0,0,0-4.79,2.79c-1.58,1-3.85,1.07-5.29,2.28s-2.24,3.09-3.48,4.5a34,34,0,0,0-3,4.71c-1,1.52-2.68,2.61-3.22,4.34a18.14,18.14,0,0,0-.62,5.84c0,2.09.89,3.7,1.67,5.44a14.84,14.84,0,0,0,3.4,4.43c1.34,1.35,2.32,3.08,4.06,4.16a38.78,38.78,0,0,0,5.14,2.93,57.25,57.25,0,0,0,5.55,2.09c1.88.58,3.75,1.36,5.66,1.8s3.91,1,5.81,1.31,4,.91,5.86,1.12C208.91,500.2,211,498.77,212.76,498.87Z"/><path class="cls-5" d="M212.76,498.87a34.75,34.75,0,0,0,7.27-.44c2.47-.38,5.26.23,7.43-1a21.16,21.16,0,0,0,4-3.05,36.4,36.4,0,0,0,3.3-3.72c1.15-1.42,1.51-3.42,2.52-4.94s1.45-3.3,2.33-4.9,2.49-2.79,3.21-4.47,2.07-3.14,2.65-4.87,1.39-3.47,1.8-5.25a30.7,30.7,0,0,0,.67-6.61c0-2.23-1.25-4.36-2-6.3s-1.71-4.06-3.58-5.31c-2.44-1.61-5.63-1.7-8.54-2-1.88-.18-3.71-1.09-5.59-1.21s-3.83,1.42-5.72,1.38-3.72,0-5.6,0-3.82-1-5.7-.81-3.76.41-5.62.72-3.78.46-5.61.93-3.48,1.56-5.25,2.22-3.13,2.12-4.82,3a48.61,48.61,0,0,0-4.79,2.79c-1.58,1-3.85,1.07-5.29,2.28s-2.24,3.09-3.48,4.5a34,34,0,0,0-3,4.71c-1,1.52-2.68,2.61-3.22,4.34a18.14,18.14,0,0,0-.62,5.84c0,2.09.89,3.7,1.67,5.44a14.84,14.84,0,0,0,3.4,4.43c1.34,1.35,2.32,3.08,4.06,4.16a38.78,38.78,0,0,0,5.14,2.93,57.25,57.25,0,0,0,5.55,2.09c1.88.58,3.75,1.36,5.66,1.8s3.91,1,5.81,1.31,4,.91,5.86,1.12C208.91,500.2,211,498.77,212.76,498.87Z"/><path class="cls-6" d="M208.92,373.62c1.88-.13,3.76-1.42,5.71-1.48s3.86.63,5.78.69,3.94-.46,5.83-.24,3.6,1.91,5.43,2.36a32.09,32.09,0,0,1,5.46,1.54c1.77.79,3,2.14,4.54,3.31a19.67,19.67,0,0,1,4,3.82c1.26,1.65,3.52,2.69,4.29,4.59s.58,4.14,1,6.18a58.05,58.05,0,0,1,.68,6.1c.18,2.05,1.1,4.07,1.19,6.1.09,2.28.66,4.55.74,6.83s-1.4,4.62-1.33,6.9.2,4.56.25,6.85c0,1.78-.06,3.55-.12,5.34a34.91,34.91,0,0,1-.71,5.21,19.53,19.53,0,0,1-1.48,4.94c-.92,2-1.6,3.94-3.07,5.52a32.91,32.91,0,0,1-4.62,4.52c-1.75,1.27-4.13,1.55-6,2.62s-3.15,3-5.06,3.92-3.71,2.14-5.67,2.92-4.38.26-6.39.83a50.42,50.42,0,0,1-6.14,1.11c-2.1.33-4.08,1.51-6.17,1.51a35,35,0,0,1-6.3-.69,30.76,30.76,0,0,1-6.25-1.37c-2-.85-3.69-2.47-5.47-3.73a32.9,32.9,0,0,1-5-4.21c-1.5-1.57-3.62-2.78-4.85-4.6s-.69-4.63-1.63-6.61a45.58,45.58,0,0,1-2.69-5.87c-.66-2.09-2.24-3.94-2.66-6.09s.44-4.47.23-6.65-1.59-4.28-1.65-6.47.05-4.4.11-6.59.73-4.35.86-6.53.85-4,1-5.78c.22-2.11.75-3.94,1.06-5.71.37-2.12-.49-4.3.05-6a25.85,25.85,0,0,1,2.17-5.6,16.91,16.91,0,0,1,4.26-4.3c1.48-1.13,3.67-1.11,5.63-1.83,1.69-.61,3.31-2,5.4-2.38,1.77-.34,3.75-.4,5.84-.63,1.82-.21,3.71-1.05,5.78-1.21C204.82,372.62,206.86,373.75,208.92,373.62Z"/><g class="cls-7"><g class="cls-8"><path class="cls-9" d="M184.08,413.18a17,17,0,0,0,5,2.19c1.84.41,3.6,1.64,5.48,1.76,2.16.14,4.36-.74,6.52-.76s4.31.08,6.47-.09,4.21-1.06,6.35-1.35,4.27-.46,6.41-.84,4.26-.63,6.38-1.07,4.21-1,6.31-1.46a64.3,64.3,0,0,0,6.39-1.24,26.54,26.54,0,0,0,5.89-2.7c1.84-1.18,4-2.21,5.23-4.08,1-1.61,1.22-3.73,1.63-5.61a32.47,32.47,0,0,0,1.15-5.66c.1-2.49-1.18-4.82-2-7.16a10.7,10.7,0,0,0-3.54-4.79c-1.6-1.36-2.78-3.64-4.85-4.33a21.25,21.25,0,0,0-6.51-.6,31.46,31.46,0,0,0-6.42.76c-2.1.42-4.38.39-6.44,1s-3.86,2.05-5.9,2.71c-1.77.56-3.33,1.85-5.12,2.35s-3.71.6-5.51,1-3.57,1.15-5.39,1.51-3.86-.48-5.7-.2-3.5,1.88-5.34,2.09-3.86-1.35-5.71-1.2c-2,.15-3.92,1.74-5.89,2.22s-4.68.2-6.09,1.73a8.38,8.38,0,0,0-1.75,6.83c.32,2.14,2.45,3.8,3.69,5.66.93,1.4,1.94,2.77,2.84,4.17s.71,3.64,1.81,4.89S182.58,412.29,184.08,413.18Z"/></g></g><path class="cls-5" d="M208.92,373.62c1.88-.13,3.76-1.42,5.71-1.48s3.86.63,5.78.69,3.94-.46,5.83-.24,3.6,1.91,5.43,2.36a32.09,32.09,0,0,1,5.46,1.54c1.77.79,3,2.14,4.54,3.31a19.67,19.67,0,0,1,4,3.82c1.26,1.65,3.52,2.69,4.29,4.59s.58,4.14,1,6.18a58.05,58.05,0,0,1,.68,6.1c.18,2.05,1.1,4.07,1.19,6.1.09,2.28.66,4.55.74,6.83s-1.4,4.62-1.33,6.9.2,4.56.25,6.85c0,1.78-.06,3.55-.12,5.34a34.91,34.91,0,0,1-.71,5.21,19.53,19.53,0,0,1-1.48,4.94c-.92,2-1.6,3.94-3.07,5.52a32.91,32.91,0,0,1-4.62,4.52c-1.75,1.27-4.13,1.55-6,2.62s-3.15,3-5.06,3.92-3.71,2.14-5.67,2.92-4.38.26-6.39.83a50.42,50.42,0,0,1-6.14,1.11c-2.1.33-4.08,1.51-6.17,1.51a35,35,0,0,1-6.3-.69,30.76,30.76,0,0,1-6.25-1.37c-2-.85-3.69-2.47-5.47-3.73a32.9,32.9,0,0,1-5-4.21c-1.5-1.57-3.62-2.78-4.85-4.6s-.69-4.63-1.63-6.61a45.58,45.58,0,0,1-2.69-5.87c-.66-2.09-2.24-3.94-2.66-6.09s.44-4.47.23-6.65-1.59-4.28-1.65-6.47.05-4.4.11-6.59.73-4.35.86-6.53.85-4,1-5.78c.22-2.11.75-3.94,1.06-5.71.37-2.12-.49-4.3.05-6a25.85,25.85,0,0,1,2.17-5.6,16.91,16.91,0,0,1,4.26-4.3c1.48-1.13,3.67-1.11,5.63-1.83,1.69-.61,3.31-2,5.4-2.38,1.77-.34,3.75-.4,5.84-.63,1.82-.21,3.71-1.05,5.78-1.21C204.82,372.62,206.86,373.75,208.92,373.62Z"/><path class="cls-6" d="M132.93,419c-1.31,1.35-3,2.43-4.26,3.88s-2,3.27-3.24,4.77-3.19,2.43-4.24,4-1.43,3.63-2.27,5.33-2.52,3.18-3,5a25.8,25.8,0,0,0-.79,5.8,22.37,22.37,0,0,0,.18,5.88,24.13,24.13,0,0,0,2.49,5.76,34.14,34.14,0,0,0,3.4,5.2,59.87,59.87,0,0,0,4.21,4.54c1.45,1.46,3.49,2.31,5,3.69,1.68,1.54,3,3.47,4.7,5s3.28,3.19,5,4.71,3.07,3.43,4.78,4.95c1.33,1.17,2.86,2.2,4.26,3.32a37.61,37.61,0,0,0,4.74,2.6c1.56.89,3.4.77,5.14,1.24,2.1.58,4,2.18,6.17,2.08s4.14-1.37,6.25-1.9,4.43-.34,6.44-1.06,3.51-2.52,5.46-3.37,4-1.35,5.85-2.35,4-1.54,5.77-2.71,2.67-3.44,4.25-4.81a39.81,39.81,0,0,0,4.53-4.26,33.59,33.59,0,0,0,3.91-4.88,30.38,30.38,0,0,0,2.7-5.7,29.54,29.54,0,0,0,1.26-6.42,33.44,33.44,0,0,0,.07-6.56c-.23-2.16-1.2-4.2-1.8-6.31s-.17-4.62-1.07-6.62a49.37,49.37,0,0,0-3.59-5.61c-1.17-1.85-3.15-3.12-4.52-4.82s-3.06-3-4.59-4.61-3.06-3-4.7-4.5-3-3.19-4.69-4.56-3.68-2.37-5.42-3.68-2.66-3.2-4.17-4.23c-1.74-1.2-3.32-2.39-4.88-3.3a50.52,50.52,0,0,0-5.1-3.08c-2-.82-4.23-.24-6-.5-2-.29-4.05-1.16-5.92-.75a20.88,20.88,0,0,0-5.46,2.49,39.64,39.64,0,0,0-4.65,3.62c-1.4,1.14-2.57,2.75-4.1,4.19-1.33,1.26-3.57,1.77-5,3.25C134.62,415,134.36,417.49,132.93,419Z"/><g class="cls-10"><g class="cls-8"><path class="cls-9" d="M127.13,449.72c2.41-2.51,5.61-.94,8.55-.64a34.3,34.3,0,0,0,5.44-.22c1.79-.12,3.56-.66,5.3-.95a51.36,51.36,0,0,0,5.09-1.55c1.71-.47,3.8.11,5.45-.53s2.61-2.83,4.18-3.65,3.79-.54,5.27-1.53a38.38,38.38,0,0,0,5.24-4.38c1.63-1.56,2.08-4,3.24-6,.82-1.36,2.51-2.25,3.07-3.72s-.28-3.37.12-4.9a62.85,62.85,0,0,0,1.74-6.28c.34-2.17,1.4-4.25,1.5-6.44.11-2.37-.75-4-1.22-5.65a7.32,7.32,0,0,0-3.11-4.44,27.81,27.81,0,0,0-5.33-3.2,37.29,37.29,0,0,0-5.85-2.32c-2-.46-4.27.45-6.35.27-2.55-.24-5.29-1.89-7.74-1.16-1.7.51-2.61,2.86-4.16,3.73s-3.05,1.33-4.47,2.18-2.6,2-4,3c-1.56,1.08-3,2.13-4.48,3.35s-2.78,2.47-4.13,3.8-2.66,2.62-3.93,4-2.79,2.55-4,4-3.25,2.23-4.43,3.71-1.68,3.5-2.85,5a12.11,12.11,0,0,0-2.51,5.26c-.4,2,.34,3.66.78,5.71.38,1.78-.24,3.94.26,6.05a58.66,58.66,0,0,1,1.74,8c.17,1.78-.11,3.57.43,5.28s1.81,3.11,2.48,4.76.24,4.09,1.47,5.41a6.58,6.58,0,0,0,5.64,1.53c0-1.67.7-3.58.72-5.25s0-3.33,0-5C126.32,454.49,125.4,451.52,127.13,449.72Z"/></g></g><path class="cls-5" d="M132.93,419c-1.31,1.35-3,2.43-4.26,3.88s-2,3.27-3.24,4.77-3.19,2.43-4.24,4-1.43,3.63-2.27,5.33-2.52,3.18-3,5a25.8,25.8,0,0,0-.79,5.8,22.37,22.37,0,0,0,.18,5.88,24.13,24.13,0,0,0,2.49,5.76,34.14,34.14,0,0,0,3.4,5.2,59.87,59.87,0,0,0,4.21,4.54c1.45,1.46,3.49,2.31,5,3.69,1.68,1.54,3,3.47,4.7,5s3.28,3.19,5,4.71,3.07,3.43,4.78,4.95c1.33,1.17,2.86,2.2,4.26,3.32a37.61,37.61,0,0,0,4.74,2.6c1.56.89,3.4.77,5.14,1.24,2.1.58,4,2.18,6.17,2.08s4.14-1.37,6.25-1.9,4.43-.34,6.44-1.06,3.51-2.52,5.46-3.37,4-1.35,5.85-2.35,4-1.54,5.77-2.71,2.67-3.44,4.25-4.81a39.81,39.81,0,0,0,4.53-4.26,33.59,33.59,0,0,0,3.91-4.88,30.38,30.38,0,0,0,2.7-5.7,29.54,29.54,0,0,0,1.26-6.42,33.44,33.44,0,0,0,.07-6.56c-.23-2.16-1.2-4.2-1.8-6.31s-.17-4.62-1.07-6.62a49.37,49.37,0,0,0-3.59-5.61c-1.17-1.85-3.15-3.12-4.52-4.82s-3.06-3-4.59-4.61-3.06-3-4.7-4.5-3-3.19-4.69-4.56-3.68-2.37-5.42-3.68-2.66-3.2-4.17-4.23c-1.74-1.2-3.32-2.39-4.88-3.3a50.52,50.52,0,0,0-5.1-3.08c-2-.82-4.23-.24-6-.5-2-.29-4.05-1.16-5.92-.75a20.88,20.88,0,0,0-5.46,2.49,39.64,39.64,0,0,0-4.65,3.62c-1.4,1.14-2.57,2.75-4.1,4.19-1.33,1.26-3.57,1.77-5,3.25C134.62,415,134.36,417.49,132.93,419Z"/><path class="cls-6" d="M96.46,347.51c-1.65.93-3.35,1.84-5,2.85s-3.15,2.22-4.73,3.31-3.59,1.72-5.06,2.93-2.17,3.37-3.46,4.76-3.26,2.39-4.29,4-.57,3.94-1.21,5.75-2.13,3.32-2.28,5.29-.7,4.3-.31,6.31a34,34,0,0,0,1.76,6.08c.75,1.89,3,3.17,3.94,5s1,4.21,2,5.95c1.17,2,2.52,3.83,3.7,5.78s3.26,3.37,4.45,5.32,2.65,3.73,3.85,5.67c.94,1.51,1.74,3.09,2.76,4.56s.88,3.95,2.1,5.24,3.46,1.52,5,2.48a20.83,20.83,0,0,0,5.74,2.86c2.07.52,4.21,1.61,6.38,1.72s4.33-1.73,6.46-1.84,4.36,1.51,6.47,1.25,3.91-2.26,6-2.68,4.16-.57,6.17-1.19,4.38-.44,6.28-1.3,3.34-2.76,5.09-3.9,3-2.84,4.5-4.3,3.68-2.26,4.88-4a29.67,29.67,0,0,0,2.8-5.92,32.84,32.84,0,0,0,1.83-6.26c.4-2.13-.14-4.31-.11-6.51s1.43-4.45,1.14-6.61A47.76,47.76,0,0,0,162,383.5a59.76,59.76,0,0,0-2.09-6.31c-.82-2-2.49-3.71-3.51-5.65s-2.21-3.77-3.36-5.63-2.48-3.59-3.72-5.39-2.13-3.86-3.43-5.62-2-3.6-3.13-5c-1.32-1.64-3.82-2.05-5.05-3.36a40.89,40.89,0,0,0-4.29-3.82c-1.67-1.36-2.34-3.87-4-4.62-1.86-.87-4-.64-6-.79s-4-.71-6-.24c-1.75.41-3.09,2.57-5.06,3.38-1.67.68-4,.3-5.85,1.25-1.63.82-3.27,1.9-5.1,2.89C99.91,345.46,98.26,346.5,96.46,347.51Z"/><g class="cls-11"><g class="cls-8"><path class="cls-9" d="M106.79,376.93c1.65-1,2.87-2.79,4.5-3.87s3.7-1.5,5.34-2.56,2.43-3.5,4.1-4.51,4-.85,5.76-1.76,3.4-1.93,5.19-2.69,3.28-2.55,5.16-3.11,4.15.06,6.1-.49a49.91,49.91,0,0,0,5.74-1.83,19.65,19.65,0,0,0,4.89-3.46,12.45,12.45,0,0,0,3.83-4.53,13.24,13.24,0,0,0,1.35-6,17.83,17.83,0,0,0-1.6-6c-.84-1.79-2.49-3.27-3.8-4.8s-3.21-2.44-4.78-3.57c-1.79-1.28-3.23-3.1-5.19-4a37.83,37.83,0,0,0-6.25-2,40.7,40.7,0,0,0-6.39-1.62,44.1,44.1,0,0,0-6.59.23c-2.17.13-4.51-.27-6.64.17s-4,2.36-6,3.08-4.59.43-6.58,1.38-3.6,2.66-5.49,3.81-3.88,2.13-5.66,3.42-3.49,2.72-5.17,4.14-3.24,2.49-4.78,3.83-2.46,3.45-4.07,4.68a40.26,40.26,0,0,1-5.37,3c-1.86,1-3.58,2.43-5.55,3.22s-3.82,1.76-5.73,2.66a25.69,25.69,0,0,0-5.2,3.25c-1.08.85-2.84,1.62-4.14,3.32a33,33,0,0,0-3.29,4.34,22.26,22.26,0,0,0-1.94,5.11,8.44,8.44,0,0,0,.39,5.31c.59,1.38,2.22,2.44,4.23,3.55a50.08,50.08,0,0,0,5.18,2.41c2.06.85,3.71,2.23,5,2.84,1.78.86,3.93.49,5.7,1a31,31,0,0,0,5.43,1.5c1.91.19,3.73-.43,5.61-.58s3.89.59,5.75.15,3.43-1.67,5.23-2.33,3.91-.48,5.65-1.31,3.31-1.89,5-2.84S105.18,378,106.79,376.93Z"/></g></g><path class="cls-5" d="M96.46,347.51c-1.65.93-3.35,1.84-5,2.85s-3.15,2.22-4.73,3.31-3.59,1.72-5.06,2.93-2.17,3.37-3.46,4.76-3.26,2.39-4.29,4-.57,3.94-1.21,5.75-2.13,3.32-2.28,5.29-.7,4.3-.31,6.31a34,34,0,0,0,1.76,6.08c.75,1.89,3,3.17,3.94,5s1,4.21,2,5.95c1.17,2,2.52,3.83,3.7,5.78s3.26,3.37,4.45,5.32,2.65,3.73,3.85,5.67c.94,1.51,1.74,3.09,2.76,4.56s.88,3.95,2.1,5.24,3.46,1.52,5,2.48a20.83,20.83,0,0,0,5.74,2.86c2.07.52,4.21,1.61,6.38,1.72s4.33-1.73,6.46-1.84,4.36,1.51,6.47,1.25,3.91-2.26,6-2.68,4.16-.57,6.17-1.19,4.38-.44,6.28-1.3,3.34-2.76,5.09-3.9,3-2.84,4.5-4.3,3.68-2.26,4.88-4a29.67,29.67,0,0,0,2.8-5.92,32.84,32.84,0,0,0,1.83-6.26c.4-2.13-.14-4.31-.11-6.51s1.43-4.45,1.14-6.61A47.76,47.76,0,0,0,162,383.5a59.76,59.76,0,0,0-2.09-6.31c-.82-2-2.49-3.71-3.51-5.65s-2.21-3.77-3.36-5.63-2.48-3.59-3.72-5.39-2.13-3.86-3.43-5.62-2-3.6-3.13-5c-1.32-1.64-3.82-2.05-5.05-3.36a40.89,40.89,0,0,0-4.29-3.82c-1.67-1.36-2.34-3.87-4-4.62-1.86-.87-4-.64-6-.79s-4-.71-6-.24c-1.75.41-3.09,2.57-5.06,3.38-1.67.68-4,.3-5.85,1.25-1.63.82-3.27,1.9-5.1,2.89C99.91,345.46,98.26,346.5,96.46,347.51Z"/><path class="cls-6" d="M171.48,306.53c-1.74.9-3,2.74-4.8,3.73s-4.18.82-5.87,1.89-2.54,3.42-4.11,4.61-4.11,1.45-5.52,2.81-1.92,3.74-3.06,5.33-3.34,2.84-4.07,4.68a27.86,27.86,0,0,0-.59,12.48c.42,2,2.17,3.63,3,5.57a51.49,51.49,0,0,0,2.64,5.58c1,1.81,2.65,3.24,3.76,5,.95,1.47.54,3.83,1.5,5.3s2.58,2.5,3.54,4,1.05,3.51,2,5,2.08,2.84,3,4.3,2,3.22,3.07,4.71,3.75,1.65,5.08,2.93,2.22,3,3.85,3.9c2,1.16,4.32,1.33,6.61,1.86s4.36,2.15,6.71,2.25,4.66-1.52,7-1.63c1.95-.1,3.88-.14,5.86-.34s4.09,1,6,.63,3.84-1.09,5.74-1.55,4-.54,5.86-1.17,3.49-2.07,5.25-2.89,3.07-2.51,4.7-3.57,4.25-1,5.7-2.29a32.8,32.8,0,0,0,4.15-4.42A31.32,31.32,0,0,0,242,369.3c.88-2,.29-4.59.73-6.75a35.56,35.56,0,0,0,1.09-6.47,40.29,40.29,0,0,0-.66-6.55,42.29,42.29,0,0,0-1.27-6.45c-.54-1.78-1.82-3.26-2.54-5s-.51-3.85-1.38-5.5-2.38-2.92-3.37-4.5-1.81-3.24-2.88-4.77-1.42-3.58-2.55-5.07-3.3-2.14-4.46-3.59c-1.39-1.73-2.17-3.77-3.45-5.23-1.48-1.68-3-3.12-4.36-4.45-1.63-1.59-2.78-3.54-4.3-4.66a27.46,27.46,0,0,0-5.58-3.17c-2-.81-4.36.44-6.41.34s-4.05-1.16-6.21-.68a46.25,46.25,0,0,0-5.84,2.24c-1.8.68-3.33,2.28-5.35,3.22-1.77.81-4.32.28-6.28,1.27C175.21,304.44,173.43,305.52,171.48,306.53Z"/><g class="cls-12"><g class="cls-8"><path class="cls-9" d="M172.52,333.72c1.94-.88,3.83-1.67,5.82-2.41s3.43-3.07,5.45-3.71,4.42,0,6.46-.61,4-1.56,6-2.14,3.83-2,5.86-2.59c2.7-.81,6-.24,8.44-1.72,1.7-1,2.87-2.8,4.12-4.15a20.55,20.55,0,0,0,3.48-4.61c.84-1.73.56-3.81.89-5.69s1.41-3.74,1.24-5.64-1.67-3.51-2.31-5.31a20.64,20.64,0,0,0-2.47-4.95,20.37,20.37,0,0,0-3.54-4.28c-1.42-1.21-2.34-3.43-4.13-4.26a36,36,0,0,0-6.32-2.15c-2.11-.53-4.47,0-6.63-.19a39.28,39.28,0,0,0-6.49.39c-2.16.21-4.13,1.11-6.24,1.64s-4.64-.2-6.64.63-3.44,3-5.35,4.07-4.07,1.71-5.85,3-3.49,2.67-5.13,4.14-3,3.24-4.47,4.84-3.42,2.85-4.81,4.56-2.87,2.93-4.14,4.53-2.47,3.2-3.83,4.71a39.68,39.68,0,0,1-4.22,4.28,36.75,36.75,0,0,1-5.39,4.07c-2,1.15-4.73,1.89-5.88,3.85-.93,1.58-.63,4,0,5.75.58,1.57,2.25,2.84,3.38,4.26a41.67,41.67,0,0,0,3.42,4.1c1.34,1.21,3.21,2,4.3,3.44s1.16,3.59,2.14,5.11,2.86,2.43,3.86,3.91,1,3.77,2.21,5.12a24.37,24.37,0,0,0,4.33,3.38c1.46,1.05,3.34,1.18,5.09,1.7.44.13.77.91,1.23.85,1.65-.21,2.45-2.38,2.7-4s.38-3.62.78-5.54,1.5-3.41,2.07-5.2.21-3.95,1-5.58,2.61-2.77,3.83-4.12,1.91-3.76,3.63-4.58C170.9,332.42,172.1,333.91,172.52,333.72Z"/></g></g><path class="cls-5" d="M171.48,306.53c-1.74.9-3,2.74-4.8,3.73s-4.18.82-5.87,1.89-2.54,3.42-4.11,4.61-4.11,1.45-5.52,2.81-1.92,3.74-3.06,5.33-3.34,2.84-4.07,4.68a27.86,27.86,0,0,0-.59,12.48c.42,2,2.17,3.63,3,5.57a51.49,51.49,0,0,0,2.64,5.58c1,1.81,2.65,3.24,3.76,5,.95,1.47.54,3.83,1.5,5.3s2.58,2.5,3.54,4,1.05,3.51,2,5,2.08,2.84,3,4.3,2,3.22,3.07,4.71,3.75,1.65,5.08,2.93,2.22,3,3.85,3.9c2,1.16,4.32,1.33,6.61,1.86s4.36,2.15,6.71,2.25,4.66-1.52,7-1.63c1.95-.1,3.88-.14,5.86-.34s4.09,1,6,.63,3.84-1.09,5.74-1.55,4-.54,5.86-1.17,3.49-2.07,5.25-2.89,3.07-2.51,4.7-3.57,4.25-1,5.7-2.29a32.8,32.8,0,0,0,4.15-4.42A31.32,31.32,0,0,0,242,369.3c.88-2,.29-4.59.73-6.75a35.56,35.56,0,0,0,1.09-6.47,40.29,40.29,0,0,0-.66-6.55,42.29,42.29,0,0,0-1.27-6.45c-.54-1.78-1.82-3.26-2.54-5s-.51-3.85-1.38-5.5-2.38-2.92-3.37-4.5-1.81-3.24-2.88-4.77-1.42-3.58-2.55-5.07-3.3-2.14-4.46-3.59c-1.39-1.73-2.17-3.77-3.45-5.23-1.48-1.68-3-3.12-4.36-4.45-1.63-1.59-2.78-3.54-4.3-4.66a27.46,27.46,0,0,0-5.58-3.17c-2-.81-4.36.44-6.41.34s-4.05-1.16-6.21-.68a46.25,46.25,0,0,0-5.84,2.24c-1.8.68-3.33,2.28-5.35,3.22-1.77.81-4.32.28-6.28,1.27C175.21,304.44,173.43,305.52,171.48,306.53Z"/><path class="cls-13" d="M62.2,332.46a49.32,49.32,0,0,1-.12-5.57,32,32,0,0,1,.88-5.46,20.68,20.68,0,0,1,1.47-5.27,16.58,16.58,0,0,1,2.83-4.76,17.85,17.85,0,0,1,4.55-3.2c1.7-.89,3.78-.62,5.62-1.16s3.33-2.49,5.24-2.76,3.86.12,5.78,0,3.82-.05,5.73-.09,3.84.61,5.73.57,3.81-.82,5.69-.95,4,.73,5.85.4a34.38,34.38,0,0,0,6.21-2.18,38.15,38.15,0,0,0,6-2.63c1.82-1.1,2.62-3.69,4.28-5.07a48.46,48.46,0,0,0,4.79-4.15c1.46-1.57,3.37-2.76,4.64-4.48a62,62,0,0,0,3.13-5.63c1.2-2.05,2.13-4.25,3.29-6.34s3.26-3.55,4.67-5.47a24.26,24.26,0,0,1,5-4.73c1.91-1.46,3.46-3.24,5.8-3.76s4.68-1.07,6.91-.54,4,2.29,6,3.48a30.89,30.89,0,0,1,5.27,4.24,43,43,0,0,1,4.33,4.81c1.35,1.72,3.76,2.77,4.84,4.67s.66,4.56,1.46,6.59c.69,1.76,2.52,3.39,3.27,5.48s.32,4.28.69,6.3c.41,2.17,1.45,4.24,1,6.18a14.69,14.69,0,0,1-2.55,4.9,13.91,13.91,0,0,1-3.84,3.77,22.07,22.07,0,0,1-4.77,2.58,50.21,50.21,0,0,1-5.19,1.76c-1.78.51-3.63.81-5.37,1.32a45.49,45.49,0,0,0-5.19,2c-1.8.78-3.48,1.86-5.27,2.68s-3.59,1.61-5.36,2.48-3.07,2.65-4.83,3.54-3.56,1.66-5.31,2.56-3.77,1.27-5.53,2.16-3.48,1.85-5.24,2.73-3.85,1.08-5.62,1.93-3.61,1.56-5.4,2.37a46.28,46.28,0,0,0-5.59,3c-1.73,1.1-2.63,3.48-4.33,4.72s-3.77,1.91-5.44,3.15-3.64,2.08-5.35,3.21-3,3.18-4.86,4.09-4.28.4-6.28.92-3.9,2.32-5.9,2.15-3.67-2.17-5.58-2.9-3.85-1.14-5.52-2.31a26.22,26.22,0,0,1-4.25-4.24c-1.36-1.51-3.73-2.4-4.69-4.17-1.06-1.94-1.31-4.36-1.95-6.46A38.62,38.62,0,0,1,62.2,332.46Z"/><g class="cls-14"><g class="cls-8"><path class="cls-9" d="M74.41,323.2c2.27-.27,4.35-2.24,6.62-2.52s4.75,1,7,.74,4.48-1.14,6.76-1.42c1.94-.24,3.92-.13,5.86-.36s3.7-1.88,5.64-2.12,4,.21,5.89,0,4.09.15,6.08-.14,4.12,0,6.1-.38,3.89-1.31,5.83-1.87,3.2-2.37,5-3.11a52.42,52.42,0,0,0,5.27-2.15,52.85,52.85,0,0,0,4.6-3.35,53.84,53.84,0,0,0,9.09-6.89,50,50,0,0,0,3.76-4.36c1.13-1.55,1.12-3.77,2.06-5.44a43.52,43.52,0,0,0,2.45-5.05c.72-1.77,2.13-3.25,2.61-5.1a42.45,42.45,0,0,0,.89-5.64c.26-2.21,1.18-4.64.82-6.91s-2-4.3-3.19-6.16a9.24,9.24,0,0,0-5.1-3.94c-2-.72-3.69-.32-5.72.17a18.58,18.58,0,0,0-5.53,2.16,50.08,50.08,0,0,0-5.31,3.13c-1.53,1.19-3.47,1.87-5,3.06s-3.23,2.19-4.76,3.38-2,3.74-3.53,4.93-3.57,1.59-5.08,2.75-3.23,2-4.77,3.11-2.59,3-4.19,4-3.22,2.13-4.89,3-3.53,1.58-5.29,2.31-3.51,1.62-5.32,2.16-3.79.66-5.64,1.05-3.84,0-5.71.32-3.74.42-5.62.64-3.69,1-5.57,1.16-3.88-.74-5.75-.54a17.24,17.24,0,0,0-5.1,1.47c-2,.92-2.74,3.24-3.74,5.19s-2.82,3.63-3.11,5.77,1.15,4.55,1.34,6.45c.26,2.73-.21,5.38,1,6.89,1.4,1.8,4.12,2,6.49,2.43C69.63,322.4,72,323.51,74.41,323.2Z"/></g></g><path class="cls-5" d="M62.2,332.46a49.32,49.32,0,0,1-.12-5.57,32,32,0,0,1,.88-5.46,20.68,20.68,0,0,1,1.47-5.27,16.58,16.58,0,0,1,2.83-4.76,17.85,17.85,0,0,1,4.55-3.2c1.7-.89,3.78-.62,5.62-1.16s3.33-2.49,5.24-2.76,3.86.12,5.78,0,3.82-.05,5.73-.09,3.84.61,5.73.57,3.81-.82,5.69-.95,4,.73,5.85.4a34.38,34.38,0,0,0,6.21-2.18,38.15,38.15,0,0,0,6-2.63c1.82-1.1,2.62-3.69,4.28-5.07a48.46,48.46,0,0,0,4.79-4.15c1.46-1.57,3.37-2.76,4.64-4.48a62,62,0,0,0,3.13-5.63c1.2-2.05,2.13-4.25,3.29-6.34s3.26-3.55,4.67-5.47a24.26,24.26,0,0,1,5-4.73c1.91-1.46,3.46-3.24,5.8-3.76s4.68-1.07,6.91-.54,4,2.29,6,3.48a30.89,30.89,0,0,1,5.27,4.24,43,43,0,0,1,4.33,4.81c1.35,1.72,3.76,2.77,4.84,4.67s.66,4.56,1.46,6.59c.69,1.76,2.52,3.39,3.27,5.48s.32,4.28.69,6.3c.41,2.17,1.45,4.24,1,6.18a14.69,14.69,0,0,1-2.55,4.9,13.91,13.91,0,0,1-3.84,3.77,22.07,22.07,0,0,1-4.77,2.58,50.21,50.21,0,0,1-5.19,1.76c-1.78.51-3.63.81-5.37,1.32a45.49,45.49,0,0,0-5.19,2c-1.8.78-3.48,1.86-5.27,2.68s-3.59,1.61-5.36,2.48-3.07,2.65-4.83,3.54-3.56,1.66-5.31,2.56-3.77,1.27-5.53,2.16-3.48,1.85-5.24,2.73-3.85,1.08-5.62,1.93-3.61,1.56-5.4,2.37a46.28,46.28,0,0,0-5.59,3c-1.73,1.1-2.63,3.48-4.33,4.72s-3.77,1.91-5.44,3.15-3.64,2.08-5.35,3.21-3,3.18-4.86,4.09-4.28.4-6.28.92-3.9,2.32-5.9,2.15-3.67-2.17-5.58-2.9-3.85-1.14-5.52-2.31a26.22,26.22,0,0,1-4.25-4.24c-1.36-1.51-3.73-2.4-4.69-4.17-1.06-1.94-1.31-4.36-1.95-6.46A38.62,38.62,0,0,1,62.2,332.46Z"/><path class="cls-13" d="M109.41,246c-2-.37-4.15-1.11-6.22-1s-4,1.51-6,2a29.84,29.84,0,0,0-5.61,2.34A27.87,27.87,0,0,0,86.16,252c-1.7,1.28-4.27,1.81-5.61,3.48s-1.12,4.39-2,6.31a25.49,25.49,0,0,0-2.45,5.8c-.43,2.11-1.6,4.28-1.43,6.4s1.51,4.12,2.35,6.12a25,25,0,0,0,2.65,5.54,40.46,40.46,0,0,0,4.19,4.5,53.75,53.75,0,0,0,4.37,3.19c1.42,1.09,2.43,2.91,4,3.81s3.58,1,5.24,1.69a31.39,31.39,0,0,0,5.25,1.12c1.74.35,3.48,1.55,5.28,1.53s3.61-.8,5.35-1.2a22.16,22.16,0,0,0,5-2c1.59-.8,3.55-1.28,4.87-2.51a21.88,21.88,0,0,0,3.87-5.19c1-1.82,1.32-4.05,1.89-6.09a32.13,32.13,0,0,0,1.15-6.19c.13-1.67-.75-3.61-.73-5.66,0-1.83.22-3.67.06-5.57a34.63,34.63,0,0,0-.9-5.45c-.49-2-.66-3.79-1.62-5.23-1.25-1.86-3.13-3.09-5.09-4.5s-3.44-3.33-5.58-4.22A32,32,0,0,0,109.41,246Z"/><g class="cls-15"><g class="cls-8"><path class="cls-9" d="M108.78,272.92a44.25,44.25,0,0,0,4.46-3.26,55.61,55.61,0,0,1,4.86-3,18.28,18.28,0,0,1,5.11-2.69c1.84-.44,3.81.5,5.6,1.11a8.4,8.4,0,0,1,4,3,13.63,13.63,0,0,1,2.69,4.51,19.72,19.72,0,0,1,.74,5.27c0,1.89-.67,3.69-1,5.55a28.47,28.47,0,0,1-2.08,5.15c-.72,1.75-.61,3.87-1.64,5.46a30.93,30.93,0,0,1-3.73,4.28,29.85,29.85,0,0,1-4.55,3.3c-1.55,1.09-2.85,2.52-4.59,3.28a31.84,31.84,0,0,1-6.21,1.85c-2.12.43-4.29-.24-6.47-.16s-4.3,1.19-6.47,1-4.24-1-6.38-1.35-4.34-.37-6.45-.79c-1.67-.33-3.17-1.38-4.83-1.88S78.45,303,77,302.2a12.41,12.41,0,0,1-3.56-3.48,12.87,12.87,0,0,1-1.83-3.85c-.49-1.41-1.43-2.66-1.7-4.13a26.87,26.87,0,0,1-.58-5.93c.08-2-.24-4.36.77-6.11a7.79,7.79,0,0,1,5.26-3.45,16,16,0,0,1,6.19-.15c2,.38,4,1.19,5.89,1.46a47.34,47.34,0,0,0,5.55,1,36.52,36.52,0,0,0,5.62-.38,28.4,28.4,0,0,0,5.38-1.53A24,24,0,0,0,108.78,272.92Z"/></g></g><path class="cls-5" d="M109.41,246c-2-.37-4.15-1.11-6.22-1s-4,1.51-6,2a29.84,29.84,0,0,0-5.61,2.34A27.87,27.87,0,0,0,86.16,252c-1.7,1.28-4.27,1.81-5.61,3.48s-1.12,4.39-2,6.31a25.49,25.49,0,0,0-2.45,5.8c-.43,2.11-1.6,4.28-1.43,6.4s1.51,4.12,2.35,6.12a25,25,0,0,0,2.65,5.54,40.46,40.46,0,0,0,4.19,4.5,53.75,53.75,0,0,0,4.37,3.19c1.42,1.09,2.43,2.91,4,3.81s3.58,1,5.24,1.69a31.39,31.39,0,0,0,5.25,1.12c1.74.35,3.48,1.55,5.28,1.53s3.61-.8,5.35-1.2a22.16,22.16,0,0,0,5-2c1.59-.8,3.55-1.28,4.87-2.51a21.88,21.88,0,0,0,3.87-5.19c1-1.82,1.32-4.05,1.89-6.09a32.13,32.13,0,0,0,1.15-6.19c.13-1.67-.75-3.61-.73-5.66,0-1.83.22-3.67.06-5.57a34.63,34.63,0,0,0-.9-5.45c-.49-2-.66-3.79-1.62-5.23-1.25-1.86-3.13-3.09-5.09-4.5s-3.44-3.33-5.58-4.22A32,32,0,0,0,109.41,246Z"/><path class="cls-13" d="M153.19,241a58.85,58.85,0,0,0,5.92-4.51,20.59,20.59,0,0,0,3.82-6.33c.9-2,2.45-3.89,2.74-6.07s-.35-4.42-.19-6.6a40.59,40.59,0,0,1,.79-6.46,22.68,22.68,0,0,1,2.67-5.6,21.56,21.56,0,0,1,4-4.6,18.83,18.83,0,0,1,4.93-3.39c1.91-1,3.31-3.31,5.32-3.66a26,26,0,0,1,6.42,0,34.31,34.31,0,0,1,6.17,1.41,47.72,47.72,0,0,1,5.72,2.59c1.88.85,3.8,1.69,5.6,2.73s3.5,2.31,5.18,3.47,3.58,1.71,5.15,2.88,3.25,2.2,4.78,3.42,1.88,3.83,3.37,5.1,3.07,2.38,4.51,3.69,2.69,2.79,4.1,4.14,4,1.5,5.37,2.88,2.82,2.73,4.16,4.14,2.56,3,3.88,4.41,2.47,3,3.76,4.5,2.29,3.17,3.56,4.66,2.26,3.19,3.51,4.69,3.39,2.36,4.65,3.91,1.59,3.81,2.82,5.38,2.5,3.09,3.7,4.67,3.31,2.49,4.49,4.1,1.13,4.09,2.28,5.71,2.12,3.35,3.23,5,3.52,2.44,4.6,4.11,1.46,3.79,2.5,5.49,1.45,3.75,2.44,5.47,2.27,3.27,3.22,5,1.32,3.78,2.22,5.55,3.39,2.77,4.24,4.57,1,3.94,1.76,5.76.95,3.9,1.68,5.75,1.63,3.62,2.3,5.49,1.5,3.68,2.09,5.58,1,3.85,1.51,5.77.75,3.89,1.2,5.83,1.67,3.92,2.07,6,.26,4.2.58,6.27.7,4.11,1,6.19,1.6,4,1.81,6.12-1.17,4.31-1,6.39,1.66,4.08,1.79,6.17-.25,4.21-.14,6.3.49,4.16.58,6.25-.79,4.22-.7,6.31c.08,1.91,1.22,3.83,1.2,5.75s-1.31,3.78-1.6,5.66.31,4.1-.46,5.87-3.2,2.74-4.59,4.2a16.83,16.83,0,0,1-4.46,3.81,16.17,16.17,0,0,1-5.7,1.3c-2,.24-4.78,1.5-6.75.92.29-2,1.5-4.56,1.71-6.59s.32-4.09.45-6.13-.78-4.11-.74-6.15,1.05-4.08,1-6.12-.09-4.1-.21-6.14.31-4.15.1-6.19-1.63-3.93-1.93-5.95-1.12-3.93-1.51-5.94.69-4.32.22-6.31-2.32-3.63-2.88-5.59-.25-4.19-.9-6.13-2.24-3.53-3-5.44-.2-4.34-1-6.21-2.09-3.56-3-5.39-2-3.59-3-5.37-1.48-3.91-2.57-5.64-3.47-2.41-4.6-4-1.26-4-2.47-5.51-2.87-2.75-4.16-4.23-2.88-2.68-4.25-4.09-2.82-2.72-4.25-4.06-2.15-3.53-3.65-4.79-3.27-2.26-4.85-3.43-3.25-2.25-4.88-3.34-3.87-1.22-5.56-2.22-2.85-3-4.59-3.86-3.89-1-5.69-1.78-3.1-2.85-4.94-3.54-4.05-.38-5.93-1-3.51-2.17-5.43-2.63-4-.42-5.92-.75-3.92-.58-5.88-.78c-2.13-.22-4.44.78-6.57.48a26.62,26.62,0,0,1-6.18-2.18,27.69,27.69,0,0,1-5.43-3.38c-1.71-1.26-3.12-3-4.8-4.27a37.68,37.68,0,0,0-5.62-3.15c-1.9-1-3.81-2.66-6-2.8-2-.14-3.72,1.77-5.56,2.44a25,25,0,0,0-5.35,2.16c-1.62,1-2.75,2.82-4.33,4s-3.69,1.67-5.3,2.69-3.41,2.37-5.18,2.09c-1.56-.24-2.16-2.18-3.1-3.54s-2.83-2.11-3.35-3.54c-.66-1.84-1.11-3.87-1.79-5.84s-1-4-1.54-6a45.45,45.45,0,0,1-1.54-6.54c1.87-.59,4.14-1.38,5.87-2s3.79-.66,5.51-1.34,3.82-.7,5.53-1.55,2.48-3.12,4.14-4.16S151.61,242.21,153.19,241Z"/><g class="cls-16"><g class="cls-8"><path class="cls-9" d="M151.16,252.51c2.24-.57,4.35-1.87,6.6-2.43s4.5,0,6.83.38,4.7-.3,6.68.76,3.58,2.72,5.56,3.69c1.74.84,3.72.77,5.55,1.3s3.46,1.74,5.36,2.06,3.84.07,5.75.28,3.67,1.58,5.58,1.79,4-1,5.9-.71,3.87,1,5.78,1.51,3.75,1.32,5.62,1.95,3.95.81,5.77,1.57,3.6,1.72,5.37,2.6,3.23,2.36,4.94,3.34,3,2.7,4.6,3.78,4.19.87,5.79,2,3.14,2.46,4.67,3.69,2,3.8,3.46,5.09,3.85,1.59,5.3,2.93,2.28,3.32,3.69,4.7,3.46,2.12,4.83,3.54,1.71,3.8,3.06,5.24,3.22,2.38,4.55,3.84,2.91,2.68,4.23,4.15,2.7,2.87,4,4.34,2.05,3.52,3.37,5,2.78,2.88,4.07,4.4,2,3.5,3.25,5.06,3.34,2.46,4.52,4.07,2.27,3.48,3.41,5.21,2.74,3.19,3.79,5,1,4.19,1.95,6,2.28,3.47,3.16,5.35,2.34,3.51,3.12,5.42.24,4.34.92,6.29,2.32,3.59,2.91,5.58.79,4.08,1.28,6.1,0,3.93.35,5.84,2.36,3.59,2.55,5.51-.71,4-.72,5.9a44.9,44.9,0,0,1-.14,5.8c-.25,1.92-1.57,3.56-2.1,5.43a34.84,34.84,0,0,1-1.63,5.47c-.84,1.75-.75,4.09-1.9,5.65a27.74,27.74,0,0,1-3.84,4.6c-1.54,1.34-3.83,1.8-5.6,2.8s-4,.92-5.89,1.64-3.26,3.13-5.21,3.67-4.16.4-6.16.65-4-.5-6-.89a15.39,15.39,0,0,1-6-2.38c-1.79-1.23-4.28-2-5.64-3.78s-1.11-4.48-2-6.52-2.72-3.81-3.13-5.94a50,50,0,0,1-.89-6.66c-.12-2.2,1.48-4.45,1.5-6.67s-1.4-4.44-1.37-6.65.81-4.42.71-6.63c-.1-2-.25-4.06-.51-6.06s.06-4.15-.34-6.13-2.63-3.53-3.16-5.49-.73-4-1.37-5.88-.79-4-1.5-5.89-.9-4-1.67-5.88-3-3.1-3.83-4.95-.46-4.23-1.31-6.06-2.76-3.18-3.61-5-.76-4.15-1.66-6-1.27-3.95-2.21-5.76-2.88-3.1-3.9-4.87-1.88-3.64-3-5.33-1.77-3.83-3-5.42-3.28-2.62-4.7-4.07-2.4-3.5-4-4.77-3.72-1.88-5.49-2.92-3.92-1-5.77-1.77-3.15-3.13-5.08-3.67-4.13-.06-6.11-.43-3.9-1-5.9-1.21-4-.4-6-.53-4,.5-6,.42-4-1.36-6-1.43-4,.67-6,.56-4-.51-6-.7-4-.24-6-.55-3.81-1.26-5.75-1.74-4.2.08-6.09-.6a44.23,44.23,0,0,1-5.71-2.15,43,43,0,0,1-4.92-3.6c-1.62-1.19-2.18-3.56-3.57-5s-3.94-1.93-5-3.58a28.08,28.08,0,0,1-2.41-5.6c-.71-1.85-.21-4-.45-6-.48-3.85,0-5,1.9-5.15s4.28,1.25,6.53,1.72a40.52,40.52,0,0,0,5.82.67,40.66,40.66,0,0,0,5.8-.56C147.26,252.78,149.29,253,151.16,252.51Z"/></g></g><path class="cls-17" d="M153.19,241a58.85,58.85,0,0,0,5.92-4.51,20.59,20.59,0,0,0,3.82-6.33c.9-2,2.45-3.89,2.74-6.07s-.35-4.42-.19-6.6a40.59,40.59,0,0,1,.79-6.46,22.68,22.68,0,0,1,2.67-5.6,21.56,21.56,0,0,1,4-4.6,18.83,18.83,0,0,1,4.93-3.39c1.91-1,3.31-3.31,5.32-3.66a26,26,0,0,1,6.42,0,34.31,34.31,0,0,1,6.17,1.41,47.72,47.72,0,0,1,5.72,2.59c1.88.85,3.8,1.69,5.6,2.73s3.5,2.31,5.18,3.47,3.58,1.71,5.15,2.88,3.25,2.2,4.78,3.42,1.88,3.83,3.37,5.1,3.07,2.38,4.51,3.69,2.69,2.79,4.1,4.14,4,1.5,5.37,2.88,2.82,2.73,4.16,4.14,2.56,3,3.88,4.41,2.47,3,3.76,4.5,2.29,3.17,3.56,4.66,2.26,3.19,3.51,4.69,3.39,2.36,4.65,3.91,1.59,3.81,2.82,5.38,2.5,3.09,3.7,4.67,3.31,2.49,4.49,4.1,1.13,4.09,2.28,5.71,2.12,3.35,3.23,5,3.52,2.44,4.6,4.11,1.46,3.79,2.5,5.49,1.45,3.75,2.44,5.47,2.27,3.27,3.22,5,1.32,3.78,2.22,5.55,3.39,2.77,4.24,4.57,1,3.94,1.76,5.76.95,3.9,1.68,5.75,1.63,3.62,2.3,5.49,1.5,3.68,2.09,5.58,1,3.85,1.51,5.77.75,3.89,1.2,5.83,1.67,3.92,2.07,6,.26,4.2.58,6.27.7,4.11,1,6.19,1.6,4,1.81,6.12-1.17,4.31-1,6.39,1.66,4.08,1.79,6.17-.25,4.21-.14,6.3.49,4.16.58,6.25-.79,4.22-.7,6.31c.08,1.91,1.22,3.83,1.2,5.75s-1.31,3.78-1.6,5.66.31,4.1-.46,5.87-3.2,2.74-4.59,4.2a16.83,16.83,0,0,1-4.46,3.81,16.17,16.17,0,0,1-5.7,1.3c-2,.24-4.78,1.5-6.75.92.29-2,1.5-4.56,1.71-6.59s.32-4.09.45-6.13-.78-4.11-.74-6.15,1.05-4.08,1-6.12-.09-4.1-.21-6.14.31-4.15.1-6.19-1.63-3.93-1.93-5.95-1.12-3.93-1.51-5.94.69-4.32.22-6.31-2.32-3.63-2.88-5.59-.25-4.19-.9-6.13-2.24-3.53-3-5.44-.2-4.34-1-6.21-2.09-3.56-3-5.39-2-3.59-3-5.37-1.48-3.91-2.57-5.64-3.47-2.41-4.6-4-1.26-4-2.47-5.51-2.87-2.75-4.16-4.23-2.88-2.68-4.25-4.09-2.82-2.72-4.25-4.06-2.15-3.53-3.65-4.79-3.27-2.26-4.85-3.43-3.25-2.25-4.88-3.34-3.87-1.22-5.56-2.22-2.85-3-4.59-3.86-3.89-1-5.69-1.78-3.1-2.85-4.94-3.54-4.05-.38-5.93-1-3.51-2.17-5.43-2.63-4-.42-5.92-.75-3.92-.58-5.88-.78c-2.13-.22-4.44.78-6.57.48a26.62,26.62,0,0,1-6.18-2.18,27.69,27.69,0,0,1-5.43-3.38c-1.71-1.26-3.12-3-4.8-4.27a37.68,37.68,0,0,0-5.62-3.15c-1.9-1-3.81-2.66-6-2.8-2-.14-3.72,1.77-5.56,2.44a25,25,0,0,0-5.35,2.16c-1.62,1-2.75,2.82-4.33,4s-3.69,1.67-5.3,2.69-3.41,2.37-5.18,2.09c-1.56-.24-2.16-2.18-3.1-3.54s-2.83-2.11-3.35-3.54c-.66-1.84-1.11-3.87-1.79-5.84s-1-4-1.54-6a45.45,45.45,0,0,1-1.54-6.54c1.87-.59,4.14-1.38,5.87-2s3.79-.66,5.51-1.34,3.82-.7,5.53-1.55,2.48-3.12,4.14-4.16S151.61,242.21,153.19,241Z"/><path class="cls-18" d="M630.09,269.05c-2.06-.35-4.2-.53-6.24-1.05s-3.79-2-5.81-2.62-4-1.28-6-1.84-4.27-.24-6.32-.69-4-1.66-6.07-1.92a53,53,0,0,0-5.79-.48,26.65,26.65,0,0,0-5.88.43,17.15,17.15,0,0,0-5.6,2.16c-1.63,1.07-2.33,3.26-3.46,4.8a28,28,0,0,0-3.2,4.75c-.81,1.74-1.88,3.42-2.54,5.19s.06,4.05-.6,5.81-2,3.27-2.69,5-1.68,3.39-2.35,5.16-1,3.65-1.65,5.42-2.1,3.24-2.77,5-.93,3.68-1.6,5.44-1.5,3.47-2.17,5.23a13.72,13.72,0,0,0-.6,8,9,9,0,0,0,2.46,4.41c1.2,1.18,3.13,1.66,4.45,2.8s2.08,3,2.91,4.49a9.2,9.2,0,0,1,1.09,5.29c-.13,1.74-1.33,3.17-2.18,4.91-.76,1.56-.59,3.8-1.66,5.35s-3.32,2.12-4.4,3.59-1.48,3.53-2.4,5c-1.06,1.71-2.46,3.32-3,5.2a27.63,27.63,0,0,0-1.39,5.93c-.14,2,.57,4.05.84,6a31,31,0,0,0,1.1,5.91,31.48,31.48,0,0,0,2.34,5.58c1,1.72,2.66,3.09,4,4.55a26.41,26.41,0,0,0,4.34,4.12c1.62,1.12,3.76,1.28,5.64,2,2.79,1,6.05,2.26,7.35,4.94.85,1.76.62,3.89.51,5.84a26.19,26.19,0,0,0,.74,5.41c.28,1.83-.79,4-.16,5.78a31.86,31.86,0,0,0,2.57,5.08c1,1.59,2.64,2.75,3.86,4.13s2.91,2.25,4.38,3.37a26.24,26.24,0,0,0,4.47,3.17c1.67.8,3.19,2.31,5,2.74s3.86-.75,5.7-.68,3.69.66,5.51.39,3.94.14,5.68-.46,3.15-2.25,4.74-3.18a24.61,24.61,0,0,0,4.41-2.92c1.43,1.4,2.43,3,4,4.27s3.24,2.46,4.85,3.66,3.2,2.52,4.89,3.6,3.51,2.08,5.27,3,3.71,1.68,5.54,2.5,3.91,1.09,5.81,1.74,3.79,1.37,5.74,1.85,4,.14,6,.44a59.92,59.92,0,0,0,5.91,1c2,.1,4-.46,6-.57a51.39,51.39,0,0,0,6-.19,52.78,52.78,0,0,0,5.79-1.47,54,54,0,0,0,5.69-1.85,55.92,55.92,0,0,0,5.61-2.22c1.75-1,2.86-2.93,4.47-4.11a47.59,47.59,0,0,0,4.68-3.64c1.47-1.37,3.3-2.35,4.58-3.89a44.5,44.5,0,0,0,3.65-4.79,43,43,0,0,0,3.15-5.19c.8-1.83.89-4.05,1.41-6,2,.54,3.78,2.05,5.77,2.57s4.13.38,6.13.83,4.16,0,6.17.36,4,.94,6,1.13,4-.12,6.1-.13,4.1.74,6.14.48,4.24,0,6.21-.55,3.39-2.68,5.23-3.55a35.48,35.48,0,0,0,5.3-2.86,29.81,29.81,0,0,0,4.23-4.25c1.42-1.48,3.25-2.5,4.29-4.25s2.75-3.32,3.31-5.32-.37-4.43-.3-6.56.46-4.26.13-6.39a50.86,50.86,0,0,0-1.07-6.36c-.58-2.07-.82-4.31-1.55-6.3a37,37,0,0,1-1.75-4.11c-.36-1.48-1.79-3-1.52-4.5.39-2.13,2.16-3.91,3.63-5.52s3.76-2.27,5.31-3.67,1.71-4,3-5.53,3.51-2.43,4.59-4.15a50.7,50.7,0,0,0,3.22-5.26c.85-1.85.94-4,1.56-6a52.58,52.58,0,0,0,1.85-5.83c.38-2-.59-4.14-.45-6.17a46.36,46.36,0,0,0,.33-6,46,46,0,0,0-1-5.92c-.36-2,.09-4.15-.54-6.08a44.68,44.68,0,0,0-2.14-5.72c-.9-1.84-2.43-3.28-3.57-5s-1.5-4-2.86-5.52a48.79,48.79,0,0,0-4.48-4.26,50.51,50.51,0,0,0-4.93-3.68c-1.69-1.14-3.89-1.44-5.7-2.36s-3.31-2.63-5.22-3.33-4.1-.62-6.08-1.08a47.79,47.79,0,0,0-6-1.46,45.87,45.87,0,0,0-6.16-.6c-2,.07-4.22,1.29-6.23,1.65.12-2,.93-4.29.7-6.24s-2.07-3.62-2.62-5.52a38.77,38.77,0,0,0-1.59-5.65c-.84-1.79-2.22-3.2-3.3-4.86s-1.08-4.14-2.38-5.64a48.87,48.87,0,0,0-4.47-4,46.61,46.61,0,0,0-5-3.34c-1.64-1.11-3.7-1.39-5.47-2.26s-3.15-2.7-5-3.3-4-.43-5.93-.74a34.58,34.58,0,0,0-5.85-.16c-2,0-3.84-.6-5.81-.23-.41-2.26-1.74-3.7-2.82-5.26a12.34,12.34,0,0,0-4.25-4.16c-1.74-.93-3.79-.84-5.91-1.22-2-.35-3.86-1.3-6-1.28a51.71,51.71,0,0,0-6.1.79c-2.07.27-4.37-.67-6.34-.23s-3.95,1.78-5.81,2.34c-2.22.67-4.32,1.1-6,1.75-2.3.92-4.27,2.64-6.57,3.56s-4.74,1.45-7,2.37-5.12,1.08-7.12,2.5a20.19,20.19,0,0,0-4.39,4.65c-1.16,1.65-1,4.13-1.89,6s-1.64,3.74-2.34,5.64c-.6,1.65-1.39,3.16-1.91,4.74s-1.46,3.15-1.79,4.81a26,26,0,0,0-.84,5.11C629.68,268.82,630.17,269.06,630.09,269.05Z"/><path class="cls-19" d="M630.09,269.05c-2.06-.35-4.2-.53-6.24-1.05s-3.79-2-5.81-2.62-4-1.28-6-1.84-4.27-.24-6.32-.69-4-1.66-6.07-1.92a53,53,0,0,0-5.79-.48,26.65,26.65,0,0,0-5.88.43,17.15,17.15,0,0,0-5.6,2.16c-1.63,1.07-2.33,3.26-3.46,4.8a28,28,0,0,0-3.2,4.75c-.81,1.74-1.88,3.42-2.54,5.19s.06,4.05-.6,5.81-2,3.27-2.69,5-1.68,3.39-2.35,5.16-1,3.65-1.65,5.42-2.1,3.24-2.77,5-.93,3.68-1.6,5.44-1.5,3.47-2.17,5.23a13.72,13.72,0,0,0-.6,8,9,9,0,0,0,2.46,4.41c1.2,1.18,3.13,1.66,4.45,2.8s2.08,3,2.91,4.49a9.2,9.2,0,0,1,1.09,5.29c-.13,1.74-1.33,3.17-2.18,4.91-.76,1.56-.59,3.8-1.66,5.35s-3.32,2.12-4.4,3.59-1.48,3.53-2.4,5c-1.06,1.71-2.46,3.32-3,5.2a27.63,27.63,0,0,0-1.39,5.93c-.14,2,.57,4.05.84,6a31,31,0,0,0,1.1,5.91,31.48,31.48,0,0,0,2.34,5.58c1,1.72,2.66,3.09,4,4.55a26.41,26.41,0,0,0,4.34,4.12c1.62,1.12,3.76,1.28,5.64,2,2.79,1,6.05,2.26,7.35,4.94.85,1.76.62,3.89.51,5.84a26.19,26.19,0,0,0,.74,5.41c.28,1.83-.79,4-.16,5.78a31.86,31.86,0,0,0,2.57,5.08c1,1.59,2.64,2.75,3.86,4.13s2.91,2.25,4.38,3.37a26.24,26.24,0,0,0,4.47,3.17c1.67.8,3.19,2.31,5,2.74s3.86-.75,5.7-.68,3.69.66,5.51.39,3.94.14,5.68-.46,3.15-2.25,4.74-3.18a24.61,24.61,0,0,0,4.41-2.92c1.43,1.4,2.43,3,4,4.27s3.24,2.46,4.85,3.66,3.2,2.52,4.89,3.6,3.51,2.08,5.27,3,3.71,1.68,5.54,2.5,3.91,1.09,5.81,1.74,3.79,1.37,5.74,1.85,4,.14,6,.44a59.92,59.92,0,0,0,5.91,1c2,.1,4-.46,6-.57a51.39,51.39,0,0,0,6-.19,52.78,52.78,0,0,0,5.79-1.47,54,54,0,0,0,5.69-1.85,55.92,55.92,0,0,0,5.61-2.22c1.75-1,2.86-2.93,4.47-4.11a47.59,47.59,0,0,0,4.68-3.64c1.47-1.37,3.3-2.35,4.58-3.89a44.5,44.5,0,0,0,3.65-4.79,43,43,0,0,0,3.15-5.19c.8-1.83.89-4.05,1.41-6,2,.54,3.78,2.05,5.77,2.57s4.13.38,6.13.83,4.16,0,6.17.36,4,.94,6,1.13,4-.12,6.1-.13,4.1.74,6.14.48,4.24,0,6.21-.55,3.39-2.68,5.23-3.55a35.48,35.48,0,0,0,5.3-2.86,29.81,29.81,0,0,0,4.23-4.25c1.42-1.48,3.25-2.5,4.29-4.25s2.75-3.32,3.31-5.32-.37-4.43-.3-6.56.46-4.26.13-6.39a50.86,50.86,0,0,0-1.07-6.36c-.58-2.07-.82-4.31-1.55-6.3a37,37,0,0,1-1.75-4.11c-.36-1.48-1.79-3-1.52-4.5.39-2.13,2.16-3.91,3.63-5.52s3.76-2.27,5.31-3.67,1.71-4,3-5.53,3.51-2.43,4.59-4.15a50.7,50.7,0,0,0,3.22-5.26c.85-1.85.94-4,1.56-6a52.58,52.58,0,0,0,1.85-5.83c.38-2-.59-4.14-.45-6.17a46.36,46.36,0,0,0,.33-6,46,46,0,0,0-1-5.92c-.36-2,.09-4.15-.54-6.08a44.68,44.68,0,0,0-2.14-5.72c-.9-1.84-2.43-3.28-3.57-5s-1.5-4-2.86-5.52a48.79,48.79,0,0,0-4.48-4.26,50.51,50.51,0,0,0-4.93-3.68c-1.69-1.14-3.89-1.44-5.7-2.36s-3.31-2.63-5.22-3.33-4.1-.62-6.08-1.08a47.79,47.79,0,0,0-6-1.46,45.87,45.87,0,0,0-6.16-.6c-2,.07-4.22,1.29-6.23,1.65.12-2,.93-4.29.7-6.24s-2.07-3.62-2.62-5.52a38.77,38.77,0,0,0-1.59-5.65c-.84-1.79-2.22-3.2-3.3-4.86s-1.08-4.14-2.38-5.64a48.87,48.87,0,0,0-4.47-4,46.61,46.61,0,0,0-5-3.34c-1.64-1.11-3.7-1.39-5.47-2.26s-3.15-2.7-5-3.3-4-.43-5.93-.74a34.58,34.58,0,0,0-5.85-.16c-2,0-3.84-.6-5.81-.23-.41-2.26-1.74-3.7-2.82-5.26a12.34,12.34,0,0,0-4.25-4.16c-1.74-.93-3.79-.84-5.91-1.22-2-.35-3.86-1.3-6-1.28a51.71,51.71,0,0,0-6.1.79c-2.07.27-4.37-.67-6.34-.23s-3.95,1.78-5.81,2.34c-2.22.67-4.32,1.1-6,1.75-2.3.92-4.27,2.64-6.57,3.56s-4.74,1.45-7,2.37-5.12,1.08-7.12,2.5a20.19,20.19,0,0,0-4.39,4.65c-1.16,1.65-1,4.13-1.89,6s-1.64,3.74-2.34,5.64c-.6,1.65-1.39,3.16-1.91,4.74s-1.46,3.15-1.79,4.81a26,26,0,0,0-.84,5.11C629.68,268.82,630.17,269.06,630.09,269.05Z"/><path class="cls-20" d="M654.87,300c-1.19.79-3.17.28-5.16-.32s-3.93-.79-5.19-1.1a47.26,47.26,0,0,0-5.38-1.28,37.1,37.1,0,0,0-5.53-.43,26.7,26.7,0,0,0-5.46.87,18.88,18.88,0,0,0-5,2.17,16.52,16.52,0,0,0-4,3.57c-1.14,1.31-3.29,2.17-4.13,4-1,2-.69,4.64-1.63,6.66s-3.32,3.64-3.85,5.8,0,4.6.27,6.94c.36,2.82,1.09,6,2.81,8.31,1.46,1.93,4.9,2.86,6,4.52,1,1.45.81,2.52.11,4.2-.59,1.43-.79,3.3-1.81,4.66s-3.26,2.23-4,3.37c-1,1.59-1.18,3.75-1.47,5.56a16.86,16.86,0,0,0,.36,5.56c.32,1.81,1.78,3.14,2.64,4.76s.49,4.3,1.83,5.55a16.13,16.13,0,0,0,5.07,2.9c1.62.6,4.11.2,4.86,1.76a7.32,7.32,0,0,1,.35,3.52c-.12,2.15-1,4.6-.3,6.62s3,3.37,4.39,5,2.53,4,4.48,4.88a17.56,17.56,0,0,0,6.57,1.19,18,18,0,0,0,6.53-.88c2-.7,3.74-2.57,5.34-4,1.38,1.36,3.36,2.26,4.9,3.46S661,401,662.66,402a45.86,45.86,0,0,0,5.2,2.72,41.59,41.59,0,0,0,5.62,1.63,37,37,0,0,0,5.7,1.09,33,33,0,0,0,5.78-.2,29.8,29.8,0,0,0,5.75-.41,31.25,31.25,0,0,0,5.47-1.95c1.76-.82,3.93-1.11,5.5-2.24s2.1-3.51,3.4-4.94a24.5,24.5,0,0,0,3.6-4.43c.94-1.69,2.46-2.58,3-4.48,1.72.46,2.88.58,4.61,1s3.46,1.14,5.21,1.44a44.71,44.71,0,0,0,5.42.36,31.79,31.79,0,0,0,5.43-.14c1.75-.22,3.08-2.1,4.76-2.72s3.42-.83,4.86-1.83a16.71,16.71,0,0,0,3.88-3.51,14,14,0,0,0,2.82-4.51c.69-2.41-.13-4.88-.52-7.36a38,38,0,0,0-1.35-7.29,9.79,9.79,0,0,1-.77-5.07,11.61,11.61,0,0,1,3.79-6.3,24.71,24.71,0,0,0,4.05-4.13c1.12-1.62,2.81-3,3.56-4.79s.25-4,.62-6,1.44-3.8,1.42-5.76-1.17-3.79-1.61-5.71-.06-4.11-.93-5.89-2.77-2.89-4-4.41a26.54,26.54,0,0,0-4-4.24c-1.54-1.23-2.78-3-4.53-3.89s-4-.64-5.87-1.16a26.68,26.68,0,0,0-5.71-.67,28.6,28.6,0,0,0-6.2-.12,22.58,22.58,0,0,0-.2-6.26c-.45-1.91-.36-4.19-1.31-5.94s-3.06-2.75-4.38-4.23a26.82,26.82,0,0,0-4.18-4.14c-1.62-1.15-3.6-1.51-5.42-2.24a20.92,20.92,0,0,0-5.53-1.64,19.48,19.48,0,0,0-6,.09,39.16,39.16,0,0,0-2.9-4.77c-1-1.56-1.35-3.63-2.64-4.87a16.21,16.21,0,0,0-4.59-3.26c-1.59-.69-3.59-.26-5.56-.27s-3.75-.52-5.43.06a21.77,21.77,0,0,0-4.93,2.44,29.24,29.24,0,0,0-4.27,3.44,36,36,0,0,0-3.62,4.12c-1.17,1.64-1.47,3.89-2.6,5.55s-2.57,3.14-3.59,4.87a35.58,35.58,0,0,0-2.51,5.4c-.83,2.33-.64,5.52-1.52,6.17C655.44,300.65,654.91,300,654.87,300Z"/><path class="cls-21" d="M654.87,300c-1.19.79-3.17.28-5.16-.32s-3.93-.79-5.19-1.1a47.26,47.26,0,0,0-5.38-1.28,37.1,37.1,0,0,0-5.53-.43,26.7,26.7,0,0,0-5.46.87,18.88,18.88,0,0,0-5,2.17,16.52,16.52,0,0,0-4,3.57c-1.14,1.31-3.29,2.17-4.13,4-1,2-.69,4.64-1.63,6.66s-3.32,3.64-3.85,5.8,0,4.6.27,6.94c.36,2.82,1.09,6,2.81,8.31,1.46,1.93,4.9,2.86,6,4.52,1,1.45.81,2.52.11,4.2-.59,1.43-.79,3.3-1.81,4.66s-3.26,2.23-4,3.37c-1,1.59-1.18,3.75-1.47,5.56a16.86,16.86,0,0,0,.36,5.56c.32,1.81,1.78,3.14,2.64,4.76s.49,4.3,1.83,5.55a16.13,16.13,0,0,0,5.07,2.9c1.62.6,4.11.2,4.86,1.76a7.32,7.32,0,0,1,.35,3.52c-.12,2.15-1,4.6-.3,6.62s3,3.37,4.39,5,2.53,4,4.48,4.88a17.56,17.56,0,0,0,6.57,1.19,18,18,0,0,0,6.53-.88c2-.7,3.74-2.57,5.34-4,1.38,1.36,3.36,2.26,4.9,3.46S661,401,662.66,402a45.86,45.86,0,0,0,5.2,2.72,41.59,41.59,0,0,0,5.62,1.63,37,37,0,0,0,5.7,1.09,33,33,0,0,0,5.78-.2,29.8,29.8,0,0,0,5.75-.41,31.25,31.25,0,0,0,5.47-1.95c1.76-.82,3.93-1.11,5.5-2.24s2.1-3.51,3.4-4.94a24.5,24.5,0,0,0,3.6-4.43c.94-1.69,2.46-2.58,3-4.48,1.72.46,2.88.58,4.61,1s3.46,1.14,5.21,1.44a44.71,44.71,0,0,0,5.42.36,31.79,31.79,0,0,0,5.43-.14c1.75-.22,3.08-2.1,4.76-2.72s3.42-.83,4.86-1.83a16.71,16.71,0,0,0,3.88-3.51,14,14,0,0,0,2.82-4.51c.69-2.41-.13-4.88-.52-7.36a38,38,0,0,0-1.35-7.29,9.79,9.79,0,0,1-.77-5.07,11.61,11.61,0,0,1,3.79-6.3,24.71,24.71,0,0,0,4.05-4.13c1.12-1.62,2.81-3,3.56-4.79s.25-4,.62-6,1.44-3.8,1.42-5.76-1.17-3.79-1.61-5.71-.06-4.11-.93-5.89-2.77-2.89-4-4.41a26.54,26.54,0,0,0-4-4.24c-1.54-1.23-2.78-3-4.53-3.89s-4-.64-5.87-1.16a26.68,26.68,0,0,0-5.71-.67,28.6,28.6,0,0,0-6.2-.12,22.58,22.58,0,0,0-.2-6.26c-.45-1.91-.36-4.19-1.31-5.94s-3.06-2.75-4.38-4.23a26.82,26.82,0,0,0-4.18-4.14c-1.62-1.15-3.6-1.51-5.42-2.24a20.92,20.92,0,0,0-5.53-1.64,19.48,19.48,0,0,0-6,.09,39.16,39.16,0,0,0-2.9-4.77c-1-1.56-1.35-3.63-2.64-4.87a16.21,16.21,0,0,0-4.59-3.26c-1.59-.69-3.59-.26-5.56-.27s-3.75-.52-5.43.06a21.77,21.77,0,0,0-4.93,2.44,29.24,29.24,0,0,0-4.27,3.44,36,36,0,0,0-3.62,4.12c-1.17,1.64-1.47,3.89-2.6,5.55s-2.57,3.14-3.59,4.87a35.58,35.58,0,0,0-2.51,5.4c-.83,2.33-.64,5.52-1.52,6.17C655.44,300.65,654.91,300,654.87,300Z"/><path class="cls-18" d="M597.77,498.23c1.57.7,3,2.31,4.75,2.25l6-.23c2-.07,4-.55,6-.62s4-.85,6-.92,4-.37,6-.44c2.45-.09,5.26.7,7.36-.55,1.89-1.12,2.78-3.51,3.58-5.55a14.14,14.14,0,0,0,.59-5.56c0-1.88.19-3.78-.44-5.64s-1.91-3.22-3-4.88a28.75,28.75,0,0,0-3.6-4.32,29.52,29.52,0,0,0-4.21-3.69c-1.58-1.15-2.51-3.37-4.22-4.15s-4.07.1-5.91-.22-3.63-.85-5.49-.53c-1.58.27-4,0-5.72,1.33-1.38,1.07-2.49,2.9-3.83,4.44a46.3,46.3,0,0,0-3.07,4.86,45.21,45.21,0,0,0-3,4.88c-.86,1.75-1,3.73-1.56,5.49a23,23,0,0,0-1.31,5.47,11.41,11.41,0,0,0,.78,5.54C594.21,496.85,595.82,497.38,597.77,498.23Z"/><path class="cls-21" d="M597.77,498.23c1.57.7,3,2.31,4.75,2.25l6-.23c2-.07,4-.55,6-.62s4-.85,6-.92,4-.37,6-.44c2.45-.09,5.26.7,7.36-.55,1.89-1.12,2.78-3.51,3.58-5.55a14.14,14.14,0,0,0,.59-5.56c0-1.88.19-3.78-.44-5.64s-1.91-3.22-3-4.88a28.75,28.75,0,0,0-3.6-4.32,29.52,29.52,0,0,0-4.21-3.69c-1.58-1.15-2.51-3.37-4.22-4.15s-4.07.1-5.91-.22-3.63-.85-5.49-.53c-1.58.27-4,0-5.72,1.33-1.38,1.07-2.49,2.9-3.83,4.44a46.3,46.3,0,0,0-3.07,4.86,45.21,45.21,0,0,0-3,4.88c-.86,1.75-1,3.73-1.56,5.49a23,23,0,0,0-1.31,5.47,11.41,11.41,0,0,0,.78,5.54C594.21,496.85,595.82,497.38,597.77,498.23Z"/><path class="cls-18" d="M733.07,457.72c-.53,2.12.87,4.38,2.34,6s3.24,3.07,5.37,3.15,4.2-1.07,6.15-1.91c2.23-1,4.65-2.09,6.18-4s2.08-4.82,2.67-7.35c.49-2.07.43-4.2-1.4-5.29a7.32,7.32,0,0,0-3.32-1.4c-2-.06-3.83,1-5.49,1.22-2,.24-3.91,0-5.43.84s-2,2.74-3.1,4.47C736.17,454.81,733.74,455.71,733.07,457.72Z"/><path class="cls-21" d="M733.07,457.72c-.53,2.12.87,4.38,2.34,6s3.24,3.07,5.37,3.15,4.2-1.07,6.15-1.91c2.23-1,4.65-2.09,6.18-4s2.08-4.82,2.67-7.35c.49-2.07.43-4.2-1.4-5.29a7.32,7.32,0,0,0-3.32-1.4c-2-.06-3.83,1-5.49,1.22-2,.24-3.91,0-5.43.84s-2,2.74-3.1,4.47C736.17,454.81,733.74,455.71,733.07,457.72Z"/><path class="cls-18" d="M507.8,223.06c-.42,0-1-.49-1.35-.3s-.35,1.15-.64,1.61c-1.19,2-2.69,3.83-3.31,6a26.12,26.12,0,0,0-.81,6.88c0,1.72,1.09,3.6.81,5.3s-1.08,2.8-.44,4.26c.54,1.21.86,2.89,2.09,3.39a18.33,18.33,0,0,0,6.74,1.53c2.26,0,4.18-1.8,5.85-3.31,2.09-1.88,3.51-4.24,5.15-6.51a49.41,49.41,0,0,1,4.67-5.54,9.33,9.33,0,0,0,2.83-6.23,6.84,6.84,0,0,0-1.22-4.79c-1-1.45-2.34-1.77-4.26-2.21a20.11,20.11,0,0,0-5.21-.57c-1.82,0-3.81-1.42-5.57-1.24C511.1,221.59,509.32,223,507.8,223.06Z"/><path class="cls-21" d="M507.8,223.06c-.42,0-1-.49-1.35-.3s-.35,1.15-.64,1.61c-1.19,2-2.69,3.83-3.31,6a26.12,26.12,0,0,0-.81,6.88c0,1.72,1.09,3.6.81,5.3s-1.08,2.8-.44,4.26c.54,1.21.86,2.89,2.09,3.39a18.33,18.33,0,0,0,6.74,1.53c2.26,0,4.18-1.8,5.85-3.31,2.09-1.88,3.51-4.24,5.15-6.51a49.41,49.41,0,0,1,4.67-5.54,9.33,9.33,0,0,0,2.83-6.23,6.84,6.84,0,0,0-1.22-4.79c-1-1.45-2.34-1.77-4.26-2.21a20.11,20.11,0,0,0-5.21-.57c-1.82,0-3.81-1.42-5.57-1.24C511.1,221.59,509.32,223,507.8,223.06Z"/><path class="cls-18" d="M629.9,188.82c.08,1.77-.36,3.76.56,5.28a14.94,14.94,0,0,0,3.5,4.27,19,19,0,0,0,4.95,2.39c1.66.58,3.73-.34,5.46-.1a50.22,50.22,0,0,0,5.62.26c1.9,0,3.8,1.67,5.7,1.64a8,8,0,0,0,6.07-3.09c.83-1.17,1.89-2.62,1.92-4.06,0-1.76-1.57-3.52-1.84-5.27s0-3.77-1.08-5.19a16.75,16.75,0,0,0-4.23-4.1c-1.56-.95-3.69-1.15-5.56-1.8a29.66,29.66,0,0,0-5.61-1.12c-2-.28-3.89-.87-5.72-.68-2,.21-3.67,1.33-5.26,2.22s-3.44,1.83-4.28,3.66C629.39,184.66,629.8,186.59,629.9,188.82Z"/><path class="cls-21" d="M629.9,188.82c.08,1.77-.36,3.76.56,5.28a14.94,14.94,0,0,0,3.5,4.27,19,19,0,0,0,4.95,2.39c1.66.58,3.73-.34,5.46-.1a50.22,50.22,0,0,0,5.62.26c1.9,0,3.8,1.67,5.7,1.64a8,8,0,0,0,6.07-3.09c.83-1.17,1.89-2.62,1.92-4.06,0-1.76-1.57-3.52-1.84-5.27s0-3.77-1.08-5.19a16.75,16.75,0,0,0-4.23-4.1c-1.56-.95-3.69-1.15-5.56-1.8a29.66,29.66,0,0,0-5.61-1.12c-2-.28-3.89-.87-5.72-.68-2,.21-3.67,1.33-5.26,2.22s-3.44,1.83-4.28,3.66C629.39,184.66,629.8,186.59,629.9,188.82Z"/><path class="cls-18" d="M812.16,227.53c-.43,0-1.39-1.45-1.75-1.23-.73.45-.87,2.14-.94,3-.16,2.11,1,4.21,1.1,6.31s-.3,4.25.12,6.31,0,4.44.73,6.43c.5,1.44,2.26,2.36,3.22,3.55a15.85,15.85,0,0,0,6.35,4.72c.64.26,1.2-.8,1.86-1,.44-.13,1,.48,1.37.16,1.2-1.18,1.43-3,2.29-4.42s2.35-2.5,2.82-4.1a19.59,19.59,0,0,0,.94-4.95,22.53,22.53,0,0,0-.15-5.64,15.06,15.06,0,0,0-2.2-5.39c-1.14-1.45-3.55-1.52-5.25-2.35s-3-2.31-5-2.57C816,226.12,814.12,227.4,812.16,227.53Z"/><path class="cls-21" d="M812.16,227.53c-.43,0-1.39-1.45-1.75-1.23-.73.45-.87,2.14-.94,3-.16,2.11,1,4.21,1.1,6.31s-.3,4.25.12,6.31,0,4.44.73,6.43c.5,1.44,2.26,2.36,3.22,3.55a15.85,15.85,0,0,0,6.35,4.72c.64.26,1.2-.8,1.86-1,.44-.13,1,.48,1.37.16,1.2-1.18,1.43-3,2.29-4.42s2.35-2.5,2.82-4.1a19.59,19.59,0,0,0,.94-4.95,22.53,22.53,0,0,0-.15-5.64,15.06,15.06,0,0,0-2.2-5.39c-1.14-1.45-3.55-1.52-5.25-2.35s-3-2.31-5-2.57C816,226.12,814.12,227.4,812.16,227.53Z"/></svg>